<svg width="50" height="50" fill="none" xmlns="http://www.w3.org/2000/svg">
  <g clip-path="url('#clip0_510_11601')" fill="#907F53">
    <path d="M49.039 31.096v3.462a2.639 2.639 0 0 1-2.635 2.635.702.702 0 0 0-.663.47c-.125.309-.231.578-.356.847-.144.346-.066.63.135.817a2.652 2.652 0 0 1 0 3.74l-2.452 2.452c-1.01.99-2.731.981-3.721 0-.231-.23-.548-.26-.837-.134-.183.086-.385.163-.587.25-.096.062-.73.175-.73.76a2.64 2.64 0 0 1-2.635 2.644h-3.462a2.639 2.639 0 0 1-2.634-2.635c0-.308-.202-.567-.5-.692-.084-.03-.778-.304-.789-.308-.346-.163-.596-.106-.798.058l-.057.057c-.99.981-2.722.981-3.712 0l-2.462-2.452a2.665 2.665 0 0 1-.769-1.875v-.124h2.73a4.888 4.888 0 0 0 4.837-4.26 1.2 1.2 0 0 1 .097-.029c.5.385 1.076.654 1.692.817a6.24 6.24 0 0 0 4.105 1.53 6.29 6.29 0 0 0 6.289-6.29c0-1.547-.558-2.98-1.51-4.086a5.102 5.102 0 0 0-.836-1.72c.01-.03.029-.059.038-.087a4.89 4.89 0 0 0 4.25-4.847v-2.701c.722-.039 1.471.211 2 .74l2.452 2.452a2.657 2.657 0 0 1 0 3.74c-.246.246-.26.557-.144.827.124.26.24.538.336.808.116.298.375.49.673.49a2.645 2.645 0 0 1 2.655 2.644Z"/>
    <path d="M36.172 15.028c-.432 0-.807-.269-.97-.701a12.19 12.19 0 0 0-.405-.952c-.173-.394-.124-.837.135-1.135l.058-.057a2.942 2.942 0 0 0 .875-2.077c0-.798-.308-1.539-.866-2.106l-2.913-2.914c-1.096-1.087-2.971-1.116-4.096-.067a.686.686 0 0 0-.096.076c-.299.298-.79.366-1.173.192a12.803 12.803 0 0 0-.972-.403 1.031 1.031 0 0 1-.692-.972 2.93 2.93 0 0 0-.865-2.086A3.008 3.008 0 0 0 22.105.96H17.98a2.95 2.95 0 0 0-2.942 2.952c0 .433-.279.817-.721.98-.318.116-.635.25-.943.395a1.07 1.07 0 0 1-1.202-.212c-1.125-1.096-3.019-1.106-4.163.01L5.086 8.009a2.97 2.97 0 0 0-.865 2.096c.01.76.288 1.471.807 2.01.03.038.048.067.077.096.308.307.385.77.221 1.144-.163.318-.288.635-.423.98a1.037 1.037 0 0 1-.99.693A2.959 2.959 0 0 0 .96 17.98v4.115a2.963 2.963 0 0 0 2.961 2.962c.423 0 .808.279.962.682.125.346.27.664.413.981a1.05 1.05 0 0 1-.202 1.183 2.95 2.95 0 0 0-.865 2.087c0 .807.308 1.548.866 2.096l2.913 2.913c1.115 1.116 3.058 1.116 4.173 0a.96.96 0 0 1 .711-.298c.154 0 .308.038.481.116.317.134.634.269.952.394.433.154.711.538.711.98a2.95 2.95 0 0 0 2.943 2.952h4.125a2.96 2.96 0 0 0 2.951-2.961c0-.433.27-.808.722-.971.096-.048.202-.087.298-.135a5.12 5.12 0 0 0 .654-.27c.404-.182.884-.105 1.173.184.029.028.067.067.096.086 1.125 1.039 3 1.01 4.087-.077l2.913-2.913a2.977 2.977 0 0 0 0-4.183 1.011 1.011 0 0 1-.288-.711c0-.164.038-.327.106-.49l.105-.232c.058-.124.116-.26.173-.403l.125-.318c.154-.423.539-.692.971-.692a2.961 2.961 0 0 0 2.953-2.962V17.98a2.963 2.963 0 0 0-2.972-2.952Zm-7.432 10.24a10.113 10.113 0 0 1-8.683 4.914 10.118 10.118 0 0 1-8.692-4.913 10.056 10.056 0 0 1-1.443-5.212c0-5.596 4.539-10.135 10.135-10.135 5.587 0 10.125 4.539 10.125 10.135a10.06 10.06 0 0 1-1.442 5.212Z"/>
    <path d="M23.866 16.5a3.812 3.812 0 0 1-3.808 3.807A3.813 3.813 0 0 1 16.25 16.5c0-2.091 1.709-3.8 3.808-3.8a3.81 3.81 0 0 1 3.808 3.8Zm3.268 7.72a.198.198 0 0 0-.038.058 8.16 8.16 0 0 1-7.039 3.981 8.163 8.163 0 0 1-7.048-3.98.207.207 0 0 0-.038-.058 10.769 10.769 0 0 1 7.086-2.635c2.644 0 5.125.942 7.077 2.635Z"/>
  </g>
  <defs>
    <clipPath id="clip0_510_11601">
      <path fill="#fff" d="M0 0h50v50H0z"/>
    </clipPath>
  </defs>
</svg>
