<svg width="20" height="20" fill="none" xmlns="http://www.w3.org/2000/svg">
  <g clip-path="url('#clip0_510_27393')">
    <path d="M18.333 5.833H12.5V4.166h5.833v1.667Zm1.439 8.333c-.369 1.08-1.691 2.5-4.251 2.5-2.562 0-4.637-1.44-4.637-4.73 0-3.257 1.938-4.932 4.555-4.932 2.569 0 4.137 1.485 4.48 3.688.064.421.09.99.078 1.783h-6.689c.109 2.676 2.903 2.76 3.824 1.691h2.64Zm-6.405-3.333h4.137c-.087-1.29-.947-1.85-2.064-1.85-1.222 0-1.897.64-2.073 1.85Zm-7.979 5.823H0V4.184h5.794c4.564.067 4.65 4.536 2.267 5.755 2.884 1.05 2.98 6.717-2.673 6.717ZM2.5 9.166h2.987c2.09 0 2.421-2.5-.26-2.5H2.5v2.5Zm2.826 2.5H2.5v2.513h2.784c2.546 0 2.39-2.513.042-2.513Z" fill="#7C7C7C"/>
  </g>
  <defs>
    <clipPath id="clip0_510_27393">
      <path fill="#fff" d="M0 0h20v20H0z"/>
    </clipPath>
  </defs>
</svg>
