<svg width="50" height="50" fill="none" xmlns="http://www.w3.org/2000/svg">
  <path fill-rule="evenodd" clip-rule="evenodd" d="M8.955 42.84V8.919a3.576 3.576 0 0 1 3.576-3.561h26.77v-1.78A3.579 3.579 0 0 0 35.738 0H7.174a3.577 3.577 0 0 0-3.56 3.577v35.688A3.577 3.577 0 0 0 7.19 42.84h1.765Z" fill="#907F53"/>
  <path fill-rule="evenodd" clip-rule="evenodd" d="M45.33 9.964a3.575 3.575 0 0 0-2.53-1.046H15.794a3.576 3.576 0 0 0-3.56 3.576v33.907a3.578 3.578 0 0 0 3.56 3.577h27.081a3.577 3.577 0 0 0 3.577-3.577V12.494a3.576 3.576 0 0 0-1.125-2.53h.001Zm-15.994 30.19h-8.184v-3.56h8.184v3.56Zm8.184-8.918H21.153V27.66H37.52v3.576Zm0-8.917H21.153v-3.577H37.52v3.577Z" fill="#907F53"/>
</svg>
