<svg width="50" height="50" fill="none" xmlns="http://www.w3.org/2000/svg">
  <path fill-rule="evenodd" clip-rule="evenodd" d="M30.28 5.816c1.454.484 2.181 1.696 2.181 3.15L23.253 42.89c-.484.97-1.454 1.697-2.423 1.697h-.727c-1.454-.485-2.18-1.697-1.938-3.15l9.208-33.924c.242-1.212 1.696-1.938 2.907-1.696Zm8.723 7.996 9.693 9.692c.969.97.969 2.423 0 3.393l-9.693 9.692c-.484.485-1.211.727-1.696.727-.485 0-1.212-.242-1.696-.727-.97-.969-.97-2.423 0-3.392l7.996-7.997-7.996-7.996c-.97-.969-.97-2.423 0-3.392.97-.969 2.423-.969 3.392 0Zm-24.23 0c.969.97.969 2.423 0 3.393L6.776 25.2l7.997 7.996c.969.969.969 2.423 0 3.392-.485.485-.97.727-1.697.727-.726 0-1.212-.242-1.696-.727l-9.692-9.692c-.97-.97-.97-2.423 0-3.392l9.692-9.693c.97-.969 2.423-.969 3.392 0Z" fill="#907F53"/>
</svg>
