<svg width="40" height="40" fill="none" xmlns="http://www.w3.org/2000/svg">
  <rect width="40" height="40" rx="20" fill="#001322"/>
  <g clip-path="url('#clip0_1054_499')" fill="#fff">
    <path d="M18 12.278a.768.768 0 0 1 .08.858 7.208 7.208 0 0 0-.878 3.46c0 4.02 3.278 7.277 7.318 7.277.527 0 1.04-.055 1.533-.16a.787.787 0 0 1 .81.316.733.733 0 0 1-.031.893A8.35 8.35 0 0 1 20.344 28C15.734 28 12 24.286 12 19.71c0-3.444 2.114-6.398 5.124-7.65a.752.752 0 0 1 .876.218Z"/>
    <path d="M22.795 15.148a.217.217 0 0 1 .412 0l.387 1.162c.173.518.579.924 1.097 1.097l1.162.387a.217.217 0 0 1 0 .412l-1.162.387a1.733 1.733 0 0 0-1.097 1.097l-.387 1.162a.217.217 0 0 1-.412 0l-.387-1.162a1.735 1.735 0 0 0-1.097-1.097l-1.162-.387a.217.217 0 0 1 0-.412l1.162-.387a1.734 1.734 0 0 0 1.097-1.097l.387-1.162Zm3.069-3.049a.146.146 0 0 1 .22-.07.146.146 0 0 1 .054.07l.258.774c.115.346.386.617.732.732l.774.258a.144.144 0 0 1 .097.137.145.145 0 0 1-.097.137l-.774.258a1.155 1.155 0 0 0-.732.732l-.258.774a.146.146 0 0 1-.137.098.145.145 0 0 1-.137-.098l-.258-.774a1.155 1.155 0 0 0-.732-.732l-.774-.258a.145.145 0 0 1 0-.274l.774-.258c.346-.115.617-.386.732-.732l.258-.773v-.001Z"/>
  </g>
  <defs>
    <clipPath id="clip0_1054_499">
      <path fill="#fff" transform="translate(12 12)" d="M0 0h16v16H0z"/>
    </clipPath>
  </defs>
</svg>
