<svg width="50" height="50" fill="none" xmlns="http://www.w3.org/2000/svg">
  <path d="M18.108 35.982h4.407l2.031-2.015a1.564 1.564 0 0 0 .281-1.813l-9.202-18.406v15.984H12.5V13.748L3.297 32.154a1.561 1.561 0 0 0 .281 1.813l2.031 2.015h12.5ZM4.688 40.67a1.563 1.563 0 0 0 1.562 1.562h1.563v6.25h12.5v-6.25h1.562a1.563 1.563 0 0 0 1.563-1.562v-1.563H4.688v1.563Zm4.687-37.5a1.563 1.563 0 0 0-1.563-1.563h-6.25A1.563 1.563 0 0 0 0 3.17v6.25a1.563 1.563 0 0 0 1.563 1.562h6.25A1.563 1.563 0 0 0 9.374 9.42V3.17ZM12.5 4.732h4.688v3.125H12.5V4.732Zm35.938-3.125h-6.25a1.563 1.563 0 0 0-1.563 1.563v6.25a1.563 1.563 0 0 0 1.563 1.562h6.25A1.563 1.563 0 0 0 50 9.42V3.17a1.563 1.563 0 0 0-1.563-1.563Zm-18.75 3.125V3.17a1.563 1.563 0 0 0-1.563-1.563h-6.25a1.563 1.563 0 0 0-1.563 1.563v6.25a1.563 1.563 0 0 0 1.563 1.562h6.25a1.563 1.563 0 0 0 1.563-1.562V4.732Zm12.5 21.875h-1.563a1.563 1.563 0 0 0-1.563 1.563v6.25a1.562 1.562 0 0 0 1.563 1.562h6.25a1.563 1.563 0 0 0 1.563-1.562v-6.25a1.563 1.563 0 0 0-1.563-1.563h-4.688ZM32.813 4.732V9.42c3.703 1.828 7.812 5.735 9.046 14.062h3.125c-1.047-8.421-4.922-13.078-8.86-15.625H37.5V4.732h-4.688Z" fill="#907F53"/>
</svg>
