<svg width="50" height="50" fill="none" xmlns="http://www.w3.org/2000/svg">
  <g clip-path="url('#clip0_510_11445')">
    <path d="M43.981 19.398V43.94a5.7 5.7 0 0 1-5.694 5.694H6.02A5.7 5.7 0 0 1 .326 43.94V11.673A5.7 5.7 0 0 1 6.02 5.979h24.541L19.729 16.812a5.659 5.659 0 0 0-1.556 2.909l-1.342 6.706a5.695 5.695 0 0 0 6.7 6.703l6.708-1.341a5.669 5.669 0 0 0 2.91-1.558l10.833-10.833Zm-21.196 10.01 6.71-1.342a1.9 1.9 0 0 0 .969-.519L47.912 10.1a5.692 5.692 0 0 0 0-8.052 5.829 5.829 0 0 0-8.052 0L22.412 19.496a1.9 1.9 0 0 0-.519.97l-1.342 6.71v-.001a1.898 1.898 0 0 0 2.234 2.233Z" fill="#907F53"/>
  </g>
  <defs>
    <clipPath id="clip0_510_11445">
      <path fill="#fff" d="M0 0h50v50H0z"/>
    </clipPath>
  </defs>
</svg>
