<svg width="70" height="70" fill="none" xmlns="http://www.w3.org/2000/svg">
  <path d="M43.512 51.552a7.003 7.003 0 0 0 7.027-6.648v-.096l6.815-7.656a4.124 4.124 0 0 1 5.665-.552 4.015 4.015 0 0 1 .468 5.73l-13.609 15.6a9.546 9.546 0 0 1-7.2 3.27H22.224l-3.552 3.551L6 52.398l9.078-9a13.84 13.84 0 0 1 14.334-3.246l1.992.702h12.27a3.865 3.865 0 0 1 3.864 3.984 3.972 3.972 0 0 1-4.026 3.714H36.15a1.5 1.5 0 0 0 0 3h7.362Zm-7.428-28.704c.99.561 2.024 1.043 3.09 1.44.456.18.912.366 1.362.564.538.23 1.04.532 1.494.9a1.73 1.73 0 0 1-.414 3.06 4.904 4.904 0 0 1-2.58.336 11.998 11.998 0 0 1-4.14-1.236 1.962 1.962 0 0 0-.894-.288c-.72 0-.942.726-1.068 1.116a62.5 62.5 0 0 0-.648 2.262c-.336 1.236-.126 1.698 1.033 2.262a14.28 14.28 0 0 0 4.007 1.152c.22.025.437.07.648.138.046.231.064.467.054.702v1.482a1.344 1.344 0 0 0 1.41 1.428h2.22a1.29 1.29 0 0 0 1.356-1.404v-2.046c0-.456.108-.6.6-.738a7.802 7.802 0 0 0 4.05-2.598 7.165 7.165 0 0 0 1.524-5.904 7.655 7.655 0 0 0-3.87-5.238 32.724 32.724 0 0 0-3.48-1.584l-.456-.186a8.047 8.047 0 0 1-1.944-1.116 1.464 1.464 0 0 1-.6-1.314c.098-.524.465-.958.966-1.14.36-.143.742-.218 1.128-.222a9.26 9.26 0 0 1 4.602.912c1.477.714 1.8-.36 1.92-.816.199-.6.373-1.2.547-1.83l.204-.72a1.346 1.346 0 0 0-.84-1.74 12.657 12.657 0 0 0-3.187-.93c-.99-.156-.99-.156-.99-1.152 0-2.094-.161-2.4-2.207-2.4h-1.105c-1.2.036-1.523.39-1.553 1.566V8.82c0 .882 0 .882-.877 1.2-3.192 1.158-4.908 3.342-5.1 6.486-.174 2.646 1.056 4.734 3.738 6.342Z" fill="#907F53"/>
</svg>
