<svg width="71" height="70" fill="none" xmlns="http://www.w3.org/2000/svg">
  <path d="M47.907 61.748A39.079 39.079 0 0 1 8.585 22.425v-1.553a.505.505 0 0 0-.204-.404 28.788 28.788 0 0 1-5.653-5.588c-.304-.397.123-.928.593-.756 1.3.478 2.635.86 3.99 1.144.53.11.827-.644.416-.995a13.967 13.967 0 0 1-3.719-5.02c-.185-.425.28-.81.689-.591a27.228 27.228 0 0 0 7.322 2.653.505.505 0 0 0 .463-.145 13.843 13.843 0 0 1 23.523 12.139.512.512 0 0 0 .527.61 39.171 39.171 0 0 0 27.357-13.827c.226-.268.651-.233.81.08a13.812 13.812 0 0 1-3.23 16.66c-.38.332-.143.977.354.893a13.688 13.688 0 0 0 4.233-1.46.09.09 0 0 1 .134.08 13.873 13.873 0 0 1-8.92 13.043c-.488.186-.47.908.05.969a13.91 13.91 0 0 0 3.288-.01c.377-.047.686.313.545.666a13.811 13.811 0 0 1-11.145 8.57c-.463.057-.656.657-.278.93a27.716 27.716 0 0 0 16.093 5.294c.33-.01.66-.025.99-.046.536-.033.782.686.313.947a39.108 39.108 0 0 1-19.219 4.948" fill="#fff"/>
</svg>
