<svg width="71" height="70" fill="none" xmlns="http://www.w3.org/2000/svg">
  <path d="m22.791 23.206 2.956.521c.347 1.287.86 2.523 1.528 3.677l-1.72 2.456a2.27 2.27 0 0 0 .249 2.913l1.77 1.771h.001a2.27 2.27 0 0 0 2.913.25l2.457-1.72c1.153.667 2.39 1.18 3.676 1.527l.522 2.956a2.271 2.271 0 0 0 2.234 1.878h2.535a2.27 2.27 0 0 0 2.236-1.878l.52-2.956a15.307 15.307 0 0 0 3.67-1.528l2.457 1.721a2.269 2.269 0 0 0 2.913-.25l1.77-1.77a2.269 2.269 0 0 0 .25-2.914l-1.749-2.456a15.317 15.317 0 0 0 1.5-3.677l2.956-.522a2.272 2.272 0 0 0 1.878-2.234v-2.507a2.269 2.269 0 0 0-1.878-2.234l-2.956-.521a15.305 15.305 0 0 0-1.528-3.678l1.72-2.456a2.27 2.27 0 0 0-.192-2.913l-1.8-1.771a2.268 2.268 0 0 0-2.913-.257l-2.427 1.72a15.284 15.284 0 0 0-3.678-1.527L44.14 1.87A2.27 2.27 0 0 0 41.912 0H39.37a2.27 2.27 0 0 0-2.234 1.878l-.522 2.956a15.303 15.303 0 0 0-3.677 1.52l-2.45-1.72a2.27 2.27 0 0 0-2.912.257l-1.77 1.77h-.001a2.271 2.271 0 0 0-.25 2.914l1.72 2.456a15.314 15.314 0 0 0-1.535 3.678l-2.956.521a2.274 2.274 0 0 0-1.878 2.234v2.507a2.271 2.271 0 0 0 1.886 2.235Zm17.85-11.925a8.435 8.435 0 0 1 8.412 8.447 8.43 8.43 0 0 1-8.44 8.418 8.432 8.432 0 0 1-8.426-8.432 8.447 8.447 0 0 1 8.44-8.433h.015ZM16.994 69.974 2.834 56.18l10.14-10.075a15.458 15.458 0 0 1 16.008-3.62l2.22.778h13.71a4.285 4.285 0 0 1 4.283 4.449 4.435 4.435 0 0 1-4.498 4.184H36.5a1.678 1.678 0 1 0 0 3.356h8.226a7.856 7.856 0 0 0 7.847-7.412v-.107l7.611-8.568a4.605 4.605 0 0 1 6.327-.607 4.483 4.483 0 0 1 .52 6.426L51.838 62.356a10.66 10.66 0 0 1-8.033 3.656h-22.85l-3.962 3.962Zm19.144-50.26a4.492 4.492 0 1 1 8.984.001 4.492 4.492 0 0 1-8.984 0Z" fill="#fff"/>
</svg>
