<svg width="71" height="70" fill="none" xmlns="http://www.w3.org/2000/svg">
  <g clip-path="url('#clip0_29_451')" fill="#fff">
    <path d="M25.852 50.374h6.169l2.844-2.822a2.19 2.19 0 0 0 .393-2.537L22.374 19.246v22.378H18V19.246L5.116 45.015a2.186 2.186 0 0 0 .393 2.537l2.844 2.822h17.499ZM7.063 56.938a2.188 2.188 0 0 0 2.187 2.187h2.188v8.75h17.5v-8.75h2.187a2.188 2.188 0 0 0 2.188-2.188V54.75H7.063v2.188Zm6.562-52.5a2.188 2.188 0 0 0-2.188-2.188h-8.75A2.188 2.188 0 0 0 .5 4.438v8.75a2.188 2.188 0 0 0 2.188 2.187h8.75a2.188 2.188 0 0 0 2.187-2.188v-8.75ZM18 6.625h6.563V11H18V6.625ZM68.313 2.25h-8.75a2.188 2.188 0 0 0-2.188 2.188v8.75a2.188 2.188 0 0 0 2.188 2.187h8.75a2.188 2.188 0 0 0 2.187-2.188v-8.75a2.188 2.188 0 0 0-2.188-2.187Zm-26.25 4.375V4.437a2.188 2.188 0 0 0-2.188-2.187h-8.75a2.188 2.188 0 0 0-2.188 2.188v8.75a2.188 2.188 0 0 0 2.188 2.187h8.75a2.188 2.188 0 0 0 2.188-2.188V6.625Zm17.5 30.625h-2.188a2.188 2.188 0 0 0-2.188 2.188v8.75a2.188 2.188 0 0 0 2.188 2.187h8.75a2.188 2.188 0 0 0 2.188-2.188v-8.75a2.188 2.188 0 0 0-2.188-2.187h-6.563ZM46.438 6.625v6.563c5.184 2.56 10.937 8.028 12.664 19.687h4.376C62.011 21.085 56.587 14.565 51.073 11H53V6.625h-6.562Z"/>
  </g>
  <defs>
    <clipPath id="clip0_29_451">
      <path fill="#fff" transform="translate(.5)" d="M0 0h70v70H0z"/>
    </clipPath>
  </defs>
</svg>
