<svg width="71" height="70" fill="none" xmlns="http://www.w3.org/2000/svg">
  <path d="M15.455 41.58a2.346 2.346 0 0 0-2.11-1.305c-.9 0-1.709.5-2.11 1.305L5.557 52.934h15.576L15.455 41.58Zm12.659-23.46a3.169 3.169 0 0 1 3.165-3.164h22.155v-2.11h-35.87v16.88h10.55V18.12Zm2.11-10.55V4.403H20.73a3.169 3.169 0 0 0-3.165 3.165v3.165h13.743a5.222 5.222 0 0 1-1.082-3.165ZM24.95 44.494c-.932 0-1.811.497-2.291 1.297l-1.493 2.49 2.326 4.653h8.035l-4.285-7.143a2.687 2.687 0 0 0-2.292-1.297Z" fill="#F15A25"/>
  <path d="M13.344 38.164c1.704 0 3.236.946 3.997 2.47l2.007 4.014a.857.857 0 0 0 1.5.058 4.809 4.809 0 0 1 4.101-2.322c.422 0 .836.057 1.234.166.83.228 1.931-.308 1.931-1.169v-8.547a1 1 0 0 0-1-1H5.904a1 1 0 0 0-1 1v12.45c0 1.055 1.423 1.39 1.895.447l2.548-5.097a4.443 4.443 0 0 1 3.997-2.47Zm9.495-4.22a3.169 3.169 0 0 1 3.165 3.165 3.169 3.169 0 0 1-3.165 3.165 3.169 3.169 0 0 1-3.165-3.165 3.169 3.169 0 0 1 3.165-3.165Zm-5.275 21.101v7.385a3.169 3.169 0 0 0 3.165 3.165h29.54a3.169 3.169 0 0 0 3.165-3.165v-7.385h-35.87Zm7.385 6.33c0 .582-.472 1.055-1.055 1.055h-2.11a1.056 1.056 0 0 1-1.055-1.055v-2.11c0-.582.473-1.055 1.055-1.055h2.11c.583 0 1.055.473 1.055 1.055v2.11Zm21.1-2.11c0-.582.473-1.055 1.055-1.055h2.11c.582 0 1.055.473 1.055 1.055v2.11c0 .582-.473 1.055-1.055 1.055h-2.11a1.056 1.056 0 0 1-1.055-1.055v-2.11Zm-6.33 0v2.11c0 .582-.473 1.055-1.055 1.055h-6.33a1.056 1.056 0 0 1-1.055-1.055v-2.11c0-.582.473-1.055 1.055-1.055h6.33c.582 0 1.055.473 1.055 1.055Zm-5.274-10.55h18.99v4.22h-18.99v-4.22ZM65.04 17.064H31.28c-.582 0-1.055.473-1.055 1.055v5.275h35.87V18.12c0-.582-.473-1.055-1.055-1.055Zm-30.595 4.22h-2.11v-2.11h2.11v2.11Zm4.22 0h-2.11v-2.11h2.11v2.11Zm4.22 0h-2.11v-2.11h2.11v2.11ZM30.225 45.55c0 .583.473 1.056 1.055 1.056h33.76c.582 0 1.054-.473 1.054-1.055V25.506h-35.87V45.55Zm32.704-2.11H50.27v-6.33h12.66v6.33ZM49.214 27.617h14.77v2.11h-14.77v-2.11Zm0 4.22h14.77v2.11h-14.77v-2.11Zm-2.11 8.44h-10.55v-2.11h10.55v2.11ZM33.39 28.67h12.66V35H33.39v-6.33Zm-1.055 9.495h2.11v2.11h-2.11v-2.11Zm0 4.22h14.77v2.11h-14.77v-2.11ZM53.436 7.57a3.169 3.169 0 0 0-3.165-3.166h-9.495V7.57a5.222 5.222 0 0 1-1.083 3.165h13.743V7.57ZM50.27 8.623a1.056 1.056 0 1 1 .001-2.111 1.056 1.056 0 0 1-.001 2.111ZM35.5 10.734a3.169 3.169 0 0 0 3.166-3.165V4.404h-6.33V7.57a3.169 3.169 0 0 0 3.165 3.165Zm0-4.22a1.056 1.056 0 1 1 0 2.112 1.056 1.056 0 0 1 0-2.112Z" fill="#F15A25"/>
</svg>
