<svg width="71" height="70" fill="none" xmlns="http://www.w3.org/2000/svg">
  <path d="M59.086 4H13.914A7.417 7.417 0 0 0 6.5 11.414v6.515h60v-6.515A7.417 7.417 0 0 0 59.086 4ZM16.143 15.25c-1.179 0-2.164-.964-2.164-2.143a2.15 2.15 0 0 1 2.142-2.143h.022a2.15 2.15 0 0 1 2.143 2.143 2.15 2.15 0 0 1-2.143 2.143Zm7.457 0c-1.179 0-2.165-.964-2.165-2.143a2.15 2.15 0 0 1 2.143-2.143h.022a2.15 2.15 0 0 1 2.143 2.143A2.149 2.149 0 0 1 23.6 15.25Zm7.457 0c-1.178 0-2.164-.964-2.164-2.143a2.15 2.15 0 0 1 2.143-2.143h.021a2.15 2.15 0 0 1 2.143 2.143 2.15 2.15 0 0 1-2.143 2.143Zm2.356 23.936-6.557-4.35-6.557 4.35v8.336h13.114v-8.336Z" fill="#fff"/>
  <path d="M6.5 56.586a7.417 7.417 0 0 0 7.414 7.415h45.172a7.417 7.417 0 0 0 7.414-7.415V22.215h-60v34.371Zm38.035-26.463h12.857c1.179 0 2.143.942 2.143 2.143a2.15 2.15 0 0 1-2.143 2.142H44.535a2.15 2.15 0 0 1-2.143-2.142c0-1.2.964-2.143 2.143-2.143Zm0 8.7h12.857a2.15 2.15 0 0 1 2.143 2.143 2.15 2.15 0 0 1-2.143 2.142H44.535a2.15 2.15 0 0 1-2.143-2.142 2.15 2.15 0 0 1 2.143-2.143Zm0 8.7h6.429a2.15 2.15 0 0 1 2.142 2.143c0 1.2-.964 2.143-2.142 2.143h-6.429a2.135 2.135 0 0 1-2.143-2.143 2.15 2.15 0 0 1 2.143-2.143ZM14.964 37.58l10.714-7.114c.696-.41 1.602-.452 2.314-.022 0 .022.021.022.043.022l10.714 7.114a2.117 2.117 0 0 1 .6 2.957c-.385.6-1.007.9-1.65.943v8.186c0 1.2-.964 2.143-2.143 2.143h-17.4a2.135 2.135 0 0 1-2.143-2.143V41.48c-.643-.043-1.264-.343-1.65-.943a2.117 2.117 0 0 1 .6-2.957Z" fill="#fff"/>
</svg>
