<svg width="20" height="20" fill="none" xmlns="http://www.w3.org/2000/svg">
  <g clip-path="url('#clip0_2304_183')">
    <path d="M9.999 6.745a3.261 3.261 0 0 0-3.255 3.254A3.261 3.261 0 0 0 10 13.254a3.261 3.261 0 0 0 3.254-3.255A3.261 3.261 0 0 0 10 6.745Zm9.76 3.254c0-1.347.013-2.683-.063-4.028-.076-1.563-.432-2.95-1.575-4.092C16.976.734 15.592.38 14.03.304 12.681.23 11.346.241 10 .241c-1.347 0-2.683-.012-4.028.063C4.41.38 3.023.737 1.88 1.88.736 3.024.382 4.41.306 5.971.231 7.319.243 8.654.243 9.999c0 1.345-.012 2.683.063 4.029.076 1.562.433 2.949 1.575 4.091 1.145 1.145 2.53 1.5 4.092 1.575 1.348.076 2.683.064 4.028.064 1.348 0 2.683.012 4.029-.064 1.562-.076 2.949-.432 4.091-1.575 1.145-1.145 1.5-2.529 1.575-4.091.078-1.346.063-2.681.063-4.029ZM10 15.007a5 5 0 0 1-5.01-5.008A5 5 0 0 1 10 4.992a5 5 0 0 1 5.007 5.007A5 5 0 0 1 10 15.007Zm5.212-9.05a1.169 1.169 0 1 1 0-2.34 1.168 1.168 0 0 1 .827 1.997 1.167 1.167 0 0 1-.827.342Z" fill="#F15A25"/>
  </g>
  <defs>
    <clipPath id="clip0_2304_183">
      <path fill="#fff" d="M0 0h20v20H0z"/>
    </clipPath>
  </defs>
</svg>
