<svg width="40" height="40" fill="none" xmlns="http://www.w3.org/2000/svg">
  <rect width="40" height="40" rx="20" fill="#fff"/>
  <g clip-path="url('#clip0_1054_9278')">
    <path fill-rule="evenodd" clip-rule="evenodd" d="M20 12a1 1 0 0 1 1 1v1a1 1 0 0 1-2 0v-1a1 1 0 0 1 1-1Zm4 8a4 4 0 1 1-8 0 4 4 0 0 1 8 0Zm-.464 4.95.707.707a1 1 0 0 0 1.414-1.414l-.707-.707a1 1 0 0 0-1.414 1.414Zm2.12-10.607a1 1 0 0 1 0 1.414l-.706.707a1 1 0 1 1-1.414-1.414l.707-.707a1 1 0 0 1 1.414 0h-.001ZM27 21a1 1 0 0 0 0-2h-1a1 1 0 0 0 0 2h1Zm-7 4a1 1 0 0 1 1 1v1a1 1 0 0 1-2 0v-1a1 1 0 0 1 1-1Zm-4.95-8.536a1 1 0 0 0 1.415-1.414l-.708-.707a1 1 0 0 0-1.414 1.414l.707.707Zm1.414 8.486-.707.707a1 1 0 0 1-1.414-1.414l.707-.707a1 1 0 0 1 1.414 1.414ZM14 21a1 1 0 0 0 0-2h-1a1 1 0 0 0 0 2h1Z" fill="#001322"/>
  </g>
  <defs>
    <clipPath id="clip0_1054_9278">
      <path fill="#fff" transform="translate(12 12)" d="M0 0h16v16H0z"/>
    </clipPath>
  </defs>
</svg>
