<svg width="15" height="15" fill="none" xmlns="http://www.w3.org/2000/svg">
  <path fill-rule="evenodd" clip-rule="evenodd" d="M5.893 5.606h2.321v1.156c.335-.665 1.192-1.263 2.48-1.263 2.47 0 3.056 1.324 3.056 3.753v4.498h-2.5V9.805c0-1.383-.334-2.163-1.186-2.163-1.18 0-1.67.84-1.67 2.162v3.946h-2.5V5.606Zm-4.287 8.038h2.5V5.499h-2.5v8.145Zm2.858-10.8a1.581 1.581 0 0 1-.47 1.126 1.619 1.619 0 0 1-2.274 0 1.593 1.593 0 0 1-.47-1.126c0-.423.169-.828.47-1.127a1.614 1.614 0 0 1 2.274 0c.301.299.47.704.47 1.127Z" fill="#7C7C7C"/>
</svg>
