<svg width="70" height="70" fill="none" xmlns="http://www.w3.org/2000/svg">
  <path d="M35.529 31.656c-6.223-1.618-8.224-3.29-8.224-5.894 0-2.988 2.768-5.071 7.401-5.071 3.893 0 5.839 1.48 6.552 3.838.329 1.096 1.233 1.918 2.384 1.918h.823c1.81 0 3.097-1.781 2.467-3.481-1.151-3.235-3.838-5.921-8.114-6.963v-1.891A4.106 4.106 0 0 0 34.706 10a4.106 4.106 0 0 0-4.112 4.112v1.81C25.276 17.071 21 20.525 21 25.816c0 6.332 5.236 9.484 12.884 11.321 6.853 1.645 8.224 4.057 8.224 6.607 0 1.891-1.344 4.906-7.402 4.906-4.523 0-6.853-1.617-7.758-3.92-.41-1.069-1.343-1.836-2.467-1.836h-.767c-1.837 0-3.125 1.864-2.44 3.563 1.563 3.81 5.209 6.058 9.32 6.936v1.836a4.106 4.106 0 0 0 4.112 4.112 4.106 4.106 0 0 0 4.112-4.112V53.45c5.345-1.015 9.594-4.112 9.594-9.732 0-7.785-6.66-10.444-12.883-12.061Z" fill="#907F53"/>
</svg>
