<svg width="60" height="60" fill="none" xmlns="http://www.w3.org/2000/svg">
  <path d="M47.92 41.769c-.747 0-1.244-.25-1.742-.747-.995-.996-.995-2.49 0-3.485l7.716-7.715-7.467-7.218c-.995-.995-.995-2.49 0-3.485.995-.995 2.49-.995 3.484 0l9.21 9.21c.497.497.746.995.746 1.741 0 .747-.249 1.245-.747 1.743l-9.458 9.457c-.497.25-.995.498-1.742.498Zm-35.84.001c-.747 0-1.245-.25-1.742-.748L.88 31.565c-.498-.498-.747-.996-.747-1.743 0-.746.249-1.244.747-1.742l9.208-9.208c.996-.996 2.49-.996 3.485 0 .995.995.995 2.488 0 3.484l-7.218 7.218 7.467 7.964c.995.995.995 2.49 0 3.485-.498.497-.996.746-1.742.746Zm17.92.746c-1.494 0-2.49-.996-2.49-2.49V28.577c0-1.493.996-2.489 2.49-2.489 3.484 0 6.222-2.738 6.222-6.222 0-3.484-2.738-6.222-6.223-6.222-3.484 0-6.222 2.738-6.222 6.222 0 1.493-.995 2.49-2.49 2.49-1.492 0-2.488-.996-2.488-2.49 0-6.222 4.977-11.2 11.2-11.2 6.222 0 11.2 4.978 11.2 11.2 0 5.227-3.733 9.707-8.711 10.951v9.21c0 1.493-1.244 2.489-2.489 2.489Zm0 8.713c-1.492 0-2.488-.995-2.488-2.49v-.746c0-1.493.995-2.49 2.489-2.49 1.493 0 2.489.996 2.489 2.49v.747c0 1.244-.996 2.489-2.49 2.489Z" fill="#907F53"/>
</svg>
