<svg width="50" height="50" fill="none" xmlns="http://www.w3.org/2000/svg">
  <path d="m15.423 36.052-.293-.002-.027.026a6.198 6.198 0 0 1-3.363 1.702l-.252.04.94.547-1.628 1.82 1.11 5.134-1.283 2.592-1.25-2.61 1.18-5.12-1.604-1.841.468-.263.478-.27-.251-.044a6.2 6.2 0 0 1-3.339-1.747l-.027-.027h-.324a4.523 4.523 0 0 0-4.512 4.48l-.052 7.525-.005.748.184.003 18.186.119.091.002.057-8.272a4.49 4.49 0 0 0-1.301-3.2 4.483 4.483 0 0 0-3.183-1.342Z" fill="#907F53"/>
  <path d="M10.734 26.07a5.501 5.501 0 0 0-3.563 1.307 5.1 5.1 0 0 0-.606.595 5.506 5.506 0 0 0-1.373 3.604A5.541 5.541 0 0 0 7.31 35.97a5.476 5.476 0 0 0 2.269 1.066c.36.078.733.12 1.117.123h.04c3.035 0 5.522-2.47 5.543-5.508a5.503 5.503 0 0 0-1.598-3.93 5.503 5.503 0 0 0-3.91-1.65h-.038Zm32.5-16.087-.294-.003-.026.026a6.186 6.186 0 0 1-3.364 1.703l-.251.042.939.546-1.627 1.819 1.11 5.132-1.284 2.593-1.249-2.608 1.168-5.075.01-.044-1.602-1.841.947-.533-.252-.046a6.204 6.204 0 0 1-3.34-1.747l-.027-.027-.324-.002c-.105 0-.21.004-.317.012l-.004-.001-.001.001a4.524 4.524 0 0 0-4.19 4.472l-.026 3.833.914-.615c.19-.129.42-.198.662-.198.375 0 .75.162 1.026.444l1.18 1.213c.463.473.553 1.2.207 1.694l-.783 1.105.014.044c.075.23.135.464.18.7l.013.073 15.019.103.054-8.272a4.52 4.52 0 0 0-4.482-4.543Z" fill="#907F53"/>
  <path d="M33.552 7.95a5.553 5.553 0 0 0 4.958 3.139h.038c3.037 0 5.522-2.47 5.544-5.506a5.5 5.5 0 0 0-.977-3.176A5.545 5.545 0 0 0 38.584 0h-.038c-3.037 0-5.522 2.471-5.544 5.508-.002.251.013.497.047.738a5.41 5.41 0 0 0 .503 1.704ZM4.734 26.16h2.118l-.004-.092c-.007-.212-.01-.423-.01-.636C6.838 15.102 15.24 6.7 25.57 6.7c.882 0 1.767.062 2.634.186l-.673.521c-.226.173-.37.426-.406.709a1.068 1.068 0 0 0 1.712.983l1.961-1.516.012-.007.729-.565a1.05 1.05 0 0 0 .398-.675 1.053 1.053 0 0 0-.205-.824l-1.976-2.558-.111-.144a1.068 1.068 0 1 0-1.69 1.306l.515.668a20.335 20.335 0 0 0-.908-.105c-.012-.003-.024-.003-.036-.004-.65-.06-1.305-.09-1.957-.09a20.715 20.715 0 0 0-14.742 6.106 20.714 20.714 0 0 0-6.095 15.382l.002.088Zm39.566-.729c0 9.714-7.431 17.724-16.91 18.644a18.537 18.537 0 0 1-2.38.081l.766-.723a1.061 1.061 0 0 0 .046-1.51 1.066 1.066 0 0 0-1.51-.044l-2.486 2.34a1.07 1.07 0 0 0-.046 1.51l2.34 2.486c.072.076.155.14.244.19a1.06 1.06 0 0 0 1.268-.144 1.067 1.067 0 0 0 .044-1.512l-.129-.136-.315-.335c.111 0 .224.005.335.005.074 0 .15 0 .221-.002a20.701 20.701 0 0 0 14.521-6.107 20.707 20.707 0 0 0 6.108-14.741v-.091H44.3v.09ZM32.618 20.35c.142-.205.083-.54-.135-.761l-1.175-1.208a.728.728 0 0 0-.502-.224.452.452 0 0 0-.253.073l-1.394.937a.714.714 0 0 0-.051.038 4.649 4.649 0 0 0-.672-.243 4.717 4.717 0 0 0-.7-.143c-.006-.022-.015-.043-.024-.065l-.702-1.526c-.08-.175-.29-.289-.533-.289a.825.825 0 0 0-.19.024l-1.633.42c-.302.078-.526.332-.51.58l.11 1.678.01.064c-.388.28-.733.614-1.026.998a.578.578 0 0 0-.062-.01l-1.67-.152c-.245-.022-.508.198-.59.498l-.457 1.623c-.086.302.023.624.246.733l1.504.739c.018.01.035.016.053.023.047.479.166.95.355 1.4a.407.407 0 0 0-.038.047l-.97 1.37c-.142.204-.085.537.13.76l1.17 1.196c.134.14.32.223.496.223a.452.452 0 0 0 .255-.072l1.395-.939c.013-.01.026-.018.038-.03a4.763 4.763 0 0 0 1.414.4.35.35 0 0 0 .018.047l.7 1.527c.08.175.29.29.532.29.064 0 .127-.01.188-.024l1.623-.416c.3-.078.522-.333.506-.578l-.115-1.687-.004-.036c.4-.288.755-.632 1.05-1.025.018.004.037.006.055.008l1.67.154a.203.203 0 0 0 .036.002c.236 0 .473-.21.553-.493l.453-1.614c.084-.3-.024-.62-.247-.726l-1.506-.74c-.015-.008-.031-.013-.046-.02h-.002a4.96 4.96 0 0 0-.358-1.41.531.531 0 0 0 .036-.047l.969-1.374Zm-3.27 4.01a2.415 2.415 0 0 1-2.315 1.756 2.408 2.408 0 1 1 .653-4.724 2.407 2.407 0 0 1 1.661 2.969Z" fill="#907F53"/>
  <path d="M27.493 22.32a1.422 1.422 0 0 0-.38-.054 1.398 1.398 0 1 0 .38.053ZM21.72 35.478l.408.89c.05.11.179.179.328.179a.39.39 0 0 0 .114-.015l.947-.24c.182-.049.318-.206.307-.359l-.065-.979c-.002-.005-.002-.009-.002-.014.228-.166.43-.362.6-.585a.07.07 0 0 1 .023.002l.973.09a.075.075 0 0 0 .023.001c.148 0 .291-.127.34-.301l.264-.94c.052-.185-.016-.38-.154-.447l-.88-.43-.017-.008a2.844 2.844 0 0 0-.204-.806c.005-.005.009-.013.014-.02l.566-.8c.088-.126.053-.33-.08-.467l-.686-.703c-.129-.133-.34-.175-.463-.091l-.812.546a.102.102 0 0 0-.023.016 2.87 2.87 0 0 0-.782-.22.428.428 0 0 0-.011-.03l-.41-.89c-.049-.107-.178-.177-.327-.177a.51.51 0 0 0-.115.014l-.953.243c-.184.047-.32.203-.312.357l.066.98.003.027a2.797 2.797 0 0 0-.586.569c-.009 0-.018-.002-.027-.004l-.973-.087c-.151-.016-.313.12-.364.301l-.266.946c-.053.186.015.382.152.45l.878.432c.007.003.014.007.02.008.029.275.096.543.204.8l-.017.022-.564.8c-.09.125-.054.329.079.465l.68.699c.127.13.338.174.462.088l.813-.548.015-.008c.126.056.26.105.4.145.133.037.27.064.407.082.003.004.004.01.008.017Zm-.06-1.503a1.384 1.384 0 0 1 .75-2.663c.733.206 1.16.972.953 1.706a1.387 1.387 0 0 1-1.33 1.01c-.125 0-.25-.019-.372-.053Z" fill="#907F53"/>
  <path d="M22.31 31.813a.838.838 0 0 0-1.028.578.838.838 0 0 0 .801 1.062.837.837 0 0 0 .226-1.64Z" fill="#907F53"/>
</svg>
