<svg width="24" height="24" fill="none" xmlns="http://www.w3.org/2000/svg">
  <path d="M23.143 4.286h-4.286v-1.5a.215.215 0 0 0-.214-.215h-1.5a.215.215 0 0 0-.214.215v1.5h-3.965v-1.5a.215.215 0 0 0-.214-.215h-1.5a.215.215 0 0 0-.214.215v1.5H7.07v-1.5a.215.215 0 0 0-.214-.215h-1.5a.215.215 0 0 0-.214.215v1.5H.857A.856.856 0 0 0 0 5.143V20.57c0 .474.383.857.857.857h22.286A.856.856 0 0 0 24 20.57V5.143a.856.856 0 0 0-.857-.857Zm-13.5 12.428a.215.215 0 0 1-.214.214H4.5a.215.215 0 0 1-.214-.214v-1.286c0-.117.096-.214.214-.214h4.929c.117 0 .214.097.214.214v1.286Zm0-3.643a.215.215 0 0 1-.214.215H4.5a.215.215 0 0 1-.214-.215v-1.285c0-.118.096-.215.214-.215h4.929c.117 0 .214.097.214.215v1.285Zm10.031-2.445-4.42 6.126a.426.426 0 0 1-.69 0l-3.06-4.238a.215.215 0 0 1 .175-.34h1.47a.43.43 0 0 1 .346.177l1.414 1.958 2.778-3.85a.423.423 0 0 1 .345-.176H19.5c.174.003.276.2.174.343Z" fill="#fff"/>
</svg>
