<svg width="50" height="50" fill="none" xmlns="http://www.w3.org/2000/svg">
  <path d="M29.934 22.034h-2.109l-1.08-1.081-1.207-1.202c4.991-.133 9.014-4.222 9.014-9.243 0-5.106-4.156-9.258-9.26-9.258-5.106 0-9.257 4.151-9.257 9.258 0 5.022 4.02 9.11 9.007 9.243l-1.204 1.202-1.079 1.08h-2.11c-6.575 0-11.899 5.326-11.899 11.897v15.527h33.079V33.93c-.003-6.57-5.327-11.896-11.895-11.896Zm-2.33 17.698L25.29 42.04l-2.313-2.308L24.79 26.53l-1.813-1.813 2.313-2.308 2.312 2.308-1.813 1.813 1.813 13.202Z" fill="#907F53"/>
</svg>
