<svg width="28" height="28" fill="none" xmlns="http://www.w3.org/2000/svg">
  <path d="M21.16 14.506c-.83-.1-1.58.524-1.58 1.322v-.674c0-.673-.492-1.271-1.191-1.371-.83-.1-1.58.524-1.58 1.322v-.674c0-.673-.492-1.271-1.191-1.371-.83-.1-1.58.523-1.58 1.321V8.696c0-.723-.621-1.322-1.372-1.322-.751 0-1.373.599-1.373 1.322v10.249c0 .15-.207.2-.285.075-.517-.848-1.113-2.02-1.14-2.02a1.374 1.374 0 0 0-1.812-.599c-.673.324-.958 1.097-.621 1.746.052.075 1.243 2.394 2.356 3.94 1.425 1.945 2.668 2.892 3.29 3.291.62.424 1.242.649 1.656.649h3.496c.622 0 1.192-.3 1.528-.773l.648-.898c1.243-1.72 1.89-3.84 1.89-6.01v-2.469a1.288 1.288 0 0 0-1.14-1.37Zm-8.495-8.902c.31 0 .544-.224.544-.524V2.886c0-.3-.233-.524-.544-.524-.31 0-.544.225-.544.524v2.195c0 .274.26.523.544.523Zm-3.03.897a.583.583 0 0 0 .776 0 .528.528 0 0 0 0-.748L8.78 4.207a.58.58 0 0 0-.777 0 .528.528 0 0 0 0 .748l1.632 1.546Zm-.182 2.195c0-.3-.233-.524-.544-.524h-2.28c-.31 0-.543.224-.543.524 0 .299.233.523.544.523h2.279c.31 0 .544-.224.544-.523Zm6.449 0c0 .299.233.523.544.523h2.28c.31 0 .543-.224.543-.523 0-.3-.233-.524-.544-.524h-2.279c-.31 0-.544.25-.544.524Zm-.569-2.045a.58.58 0 0 0 .388-.15l1.606-1.546a.528.528 0 0 0 0-.748.579.579 0 0 0-.777 0l-1.606 1.546a.528.528 0 0 0 0 .748c.13.1.26.15.389.15Z" fill="#7C7C7C"/>
</svg>
