<svg width="20" height="20" fill="none" xmlns="http://www.w3.org/2000/svg">
  <g clip-path="url('#clip0_510_27390')">
    <path d="M19.584 5.423a2.321 2.321 0 0 0-.639-1.058 2.542 2.542 0 0 0-1.114-.618c-1.566-.413-7.835-.413-7.835-.413a63.852 63.852 0 0 0-7.825.392 2.633 2.633 0 0 0-1.115.633 2.414 2.414 0 0 0-.649 1.064A24.242 24.242 0 0 0 .001 10c-.01 1.534.125 3.067.406 4.578.114.4.337.763.646 1.058.31.294.694.506 1.118.619 1.585.412 7.825.412 7.825.412 2.617.03 5.233-.101 7.835-.392a2.543 2.543 0 0 0 1.114-.618c.305-.289.525-.655.638-1.059.288-1.509.427-3.043.418-4.579a22.147 22.147 0 0 0-.417-4.597ZM8.002 12.854V7.148l5.217 2.854-5.217 2.852Z" fill="#7C7C7C"/>
  </g>
  <defs>
    <clipPath id="clip0_510_27390">
      <path fill="#fff" d="M0 0h20v20H0z"/>
    </clipPath>
  </defs>
</svg>
