<svg width="210" height="50" fill="none" xmlns="http://www.w3.org/2000/svg">
  <g clip-path="url('#clip0_2259_1235')" fill="#fff">
    <path d="m17.186 32.672-2.184-2.223 14.822-15.087a4.565 4.565 0 0 1 1.483-1.008 4.502 4.502 0 0 1 3.5 0 4.565 4.565 0 0 1 1.482 1.008l2.184 2.223L23.65 32.672a4.531 4.531 0 0 1-3.232 1.363 4.532 4.532 0 0 1-3.232-1.363Zm16.844.001-2.185-2.223 14.823-15.087a4.566 4.566 0 0 1 1.483-1.008 4.5 4.5 0 0 1 3.499 0 4.567 4.567 0 0 1 1.483 1.008l2.184 2.223-14.823 15.087a4.531 4.531 0 0 1-3.232 1.363 4.531 4.531 0 0 1-3.233-1.363Zm16.548-2.183c0 2.512 2 4.548 4.469 4.548 2.468 0 4.469-2.036 4.469-4.548s-2.001-4.549-4.47-4.549c-2.467 0-4.468 2.037-4.468 4.549Zm76.323 1.008h-4.117l-4.985-6.328v-.009 6.337h-3.541v-13.9c0-.953.372-1.869 1.035-2.543a3.506 3.506 0 0 1 2.5-1.055v9.683l4.72-6.137h4.222l-5.51 6.891 5.676 7.06Zm68.2-6.479a3.814 3.814 0 0 0-1.675-1.28c-.646-.25-1.306-.46-1.977-.629a8.935 8.935 0 0 1-1.675-.582c-.459-.218-.686-.503-.686-.858a.925.925 0 0 1 .109-.455.898.898 0 0 1 .319-.34 1.884 1.884 0 0 1 1.078-.289c.97-.004 1.66.441 2.072 1.336l2.86-1.587a5.31 5.31 0 0 0-2.052-2.075 5.808 5.808 0 0 0-2.881-.724c-1.406 0-2.576.377-3.519 1.124-.942.747-1.418 1.773-1.418 3.08 0 .86.231 1.581.689 2.15.442.56 1.02.994 1.677 1.257.646.26 1.306.48 1.977.662a9.765 9.765 0 0 1 1.671.59c.464.223.69.512.69.863 0 .755-.598 1.132-1.789 1.132-1.318 0-2.167-.573-2.545-1.719l-2.909 1.666c.97 2.096 2.787 3.144 5.454 3.144 1.482 0 2.728-.37 3.723-1.098.996-.728 1.493-1.777 1.493-3.132 0-.89-.229-1.635-.686-2.236Zm-83.138-7.472v3.594c-.804.053-1.562.4-2.135.978a3.422 3.422 0 0 0-.977 2.166c0 .075-.008.15-.008.231-.002.077.001.154.008.23v6.745h-3.535V17.542h3.536v.866a6.742 6.742 0 0 1 3.111-.861Zm62.865 5.823a7.015 7.015 0 0 0-2.181-4.042 6.797 6.797 0 0 0-4.182-1.776 6.77 6.77 0 0 0-4.357 1.267 6.977 6.977 0 0 0-2.629 3.755 7.091 7.091 0 0 0 .246 4.605 6.937 6.937 0 0 0 3.014 3.444 6.754 6.754 0 0 0 4.466.778 6.823 6.823 0 0 0 3.968-2.227l-2.623-2.405c-.382.44-.871.77-1.417.96a3.262 3.262 0 0 1-1.698.117 3.29 3.29 0 0 1-1.531-.755 3.37 3.37 0 0 1-.963-1.428h9.884a6.86 6.86 0 0 0 .091-1.146 7.101 7.101 0 0 0-.088-1.146Zm-9.884 0a3.367 3.367 0 0 1 1.214-1.624 3.278 3.278 0 0 1 3.823 0c.56.401.984.969 1.214 1.625h-6.251Zm-12.886-5.926a6.691 6.691 0 0 0-3.314.871v-.773h-3.541V35.04h3.541v-4.514a6.69 6.69 0 0 0 3.314.87 6.75 6.75 0 0 0 2.651-.504 6.845 6.845 0 0 0 2.255-1.506 7.002 7.002 0 0 0 1.51-2.275 7.088 7.088 0 0 0 0-5.383 7.001 7.001 0 0 0-1.51-2.274 6.844 6.844 0 0 0-2.255-1.506 6.75 6.75 0 0 0-2.651-.504Zm0 10.362a3.299 3.299 0 0 1-2.249-.892 3.414 3.414 0 0 1-1.079-2.494c0-.098 0-.196.014-.289.055-.655.296-1.28.694-1.799a3.332 3.332 0 0 1 1.547-1.12 3.274 3.274 0 0 1 1.898-.077 3.32 3.32 0 0 1 1.63.992 3.442 3.442 0 0 1 .594 3.655 3.367 3.367 0 0 1-1.229 1.474c-.541.36-1.174.55-1.82.55ZM99.465 17.542v.871a6.76 6.76 0 0 0-6.795.103 6.92 6.92 0 0 0-2.468 2.549 7.073 7.073 0 0 0-.901 3.458c0 1.213.31 2.405.901 3.458a6.92 6.92 0 0 0 2.468 2.55 6.76 6.76 0 0 0 6.795.102v.86H103v-13.95h-3.536Zm-3.318 10.367a3.285 3.285 0 0 1-1.825-.554 3.372 3.372 0 0 1-1.228-1.482 3.442 3.442 0 0 1-.228-1.925 3.41 3.41 0 0 1 .847-1.736 3.316 3.316 0 0 1 1.644-.98 3.272 3.272 0 0 1 1.902.1 3.33 3.33 0 0 1 1.537 1.144 3.43 3.43 0 0 1 .669 1.815c0 .077.008.152.008.231a3.41 3.41 0 0 1-1.056 2.474 3.295 3.295 0 0 1-2.27.913Zm46.756-10.367V31.5h-3.536v-.866a6.765 6.765 0 0 1-3.414.87 6.773 6.773 0 0 1-3.388-.967 6.93 6.93 0 0 1-2.471-2.55 7.083 7.083 0 0 1-.903-3.462v-6.983h3.54v6.745c0 .076-.009.151-.009.232 0 .08 0 .154.009.23A3.41 3.41 0 0 0 133.774 27c.617.589 1.43.916 2.275.916s1.658-.327 2.275-.916a3.41 3.41 0 0 0 1.043-2.251c.007-.077.01-.154.009-.23 0-.081 0-.156-.009-.232v-6.745h3.536Z"/>
    <path d="M132.732 24.287v.462c0-.076-.009-.151-.009-.23 0-.08.005-.156.009-.232Zm51.134-6.74v3.594a3.3 3.3 0 0 0-2.139.975 3.416 3.416 0 0 0-.975 2.169c0 .075-.012.15-.012.231-.002.077.002.154.012.23v6.745h-3.533V17.542h3.539v.866a6.717 6.717 0 0 1 3.108-.861Zm-96.87 5.723v8.242h-3.54v-8.029c0-.067.011-.137.011-.212 0-.076-.008-.143-.012-.214a2.126 2.126 0 0 0-.691-1.376 2.054 2.054 0 0 0-1.427-.529 2.058 2.058 0 0 0-1.399.602 2.13 2.13 0 0 0-.622 1.596v8.162h-3.53v-8.029a1.098 1.098 0 0 0 0-.133.55.55 0 0 0 0-.08.57.57 0 0 0 0-.08 1.14 1.14 0 0 0 0-.136 2.13 2.13 0 0 0-.676-1.354 2.06 2.06 0 0 0-1.393-.545 2.06 2.06 0 0 0-1.393.545c-.382.35-.623.833-.677 1.354 0 .072-.012.139-.012.214 0 .075.009.146.012.213v8.016h-3.545v-8.226a5.782 5.782 0 0 1 .97-3.204 5.63 5.63 0 0 1 2.57-2.098 5.508 5.508 0 0 1 4.623.223 5.668 5.668 0 0 1 1.283.919c.124-.126.262-.235.398-.346a5.657 5.657 0 0 1 1.37-.796 5.508 5.508 0 0 1 4.14 0 5.63 5.63 0 0 1 2.57 2.097c.63.946.969 2.062.97 3.205Z"/>
  </g>
  <defs>
    <clipPath id="clip0_2259_1235">
      <path fill="#fff" transform="translate(15 14)" d="M0 0h181v21H0z"/>
    </clipPath>
  </defs>
</svg>
