<svg width="181" height="22" fill="none" xmlns="http://www.w3.org/2000/svg">
  <g clip-path="url('#clip0_3201_3571')">
    <path d="M2.186 19.173 0 16.95 14.824 1.863A4.566 4.566 0 0 1 16.307.855a4.502 4.502 0 0 1 3.5 0 4.566 4.566 0 0 1 1.482 1.008l2.184 2.223L8.65 19.173a4.531 4.531 0 0 1-3.232 1.363 4.531 4.531 0 0 1-3.232-1.363Zm16.844 0-2.185-2.223L31.668 1.863A4.566 4.566 0 0 1 33.151.855a4.502 4.502 0 0 1 3.499 0 4.567 4.567 0 0 1 1.483 1.008l2.184 2.223-14.823 15.087a4.531 4.531 0 0 1-3.232 1.363 4.531 4.531 0 0 1-3.233-1.363Zm16.548-2.184c0 2.512 2 4.548 4.469 4.548 2.468 0 4.469-2.036 4.469-4.548s-2.001-4.549-4.47-4.549c-2.467 0-4.468 2.037-4.468 4.549Z" fill="#F15A25"/>
    <path d="M111.901 17.998h-4.117l-4.985-6.328v-.009 6.337h-3.541v-13.9c0-.953.372-1.869 1.035-2.543a3.506 3.506 0 0 1 2.5-1.055v9.683l4.72-6.137h4.222l-5.51 6.891 5.676 7.06Zm68.2-6.479a3.814 3.814 0 0 0-1.675-1.28c-.646-.25-1.306-.46-1.977-.629a8.933 8.933 0 0 1-1.675-.582c-.459-.218-.686-.503-.686-.858a.925.925 0 0 1 .109-.455.897.897 0 0 1 .319-.34 1.884 1.884 0 0 1 1.078-.289c.97-.004 1.66.441 2.072 1.336l2.86-1.587a5.31 5.31 0 0 0-2.052-2.075 5.808 5.808 0 0 0-2.881-.724c-1.406 0-2.576.377-3.519 1.124-.942.747-1.418 1.773-1.418 3.08 0 .86.231 1.581.689 2.15.442.56 1.02.993 1.677 1.257.646.26 1.306.48 1.977.662a9.765 9.765 0 0 1 1.671.59c.464.223.69.512.69.863 0 .755-.598 1.132-1.789 1.132-1.318 0-2.167-.573-2.545-1.719l-2.909 1.666c.97 2.096 2.787 3.144 5.454 3.144 1.482 0 2.728-.37 3.723-1.098.996-.728 1.493-1.777 1.493-3.132 0-.89-.229-1.635-.686-2.236ZM96.963 4.048v3.594a3.31 3.31 0 0 0-2.134.978 3.422 3.422 0 0 0-.978 2.166c0 .075-.008.15-.008.231-.002.077.001.154.008.23v6.745h-3.535V4.043h3.536v.866a6.737 6.737 0 0 1 3.111-.861Zm62.865 5.823a7.016 7.016 0 0 0-2.181-4.042 6.797 6.797 0 0 0-4.182-1.776 6.77 6.77 0 0 0-4.357 1.267 6.978 6.978 0 0 0-2.629 3.755 7.091 7.091 0 0 0 .246 4.605 6.937 6.937 0 0 0 3.014 3.444 6.754 6.754 0 0 0 4.466.778 6.822 6.822 0 0 0 3.968-2.227l-2.623-2.405c-.382.44-.871.77-1.417.96a3.262 3.262 0 0 1-3.229-.638 3.371 3.371 0 0 1-.963-1.428h9.884a6.865 6.865 0 0 0 .091-1.146 7.102 7.102 0 0 0-.088-1.147Zm-9.884 0a3.367 3.367 0 0 1 1.214-1.624 3.278 3.278 0 0 1 3.823 0c.56.401.984.969 1.214 1.624h-6.251Zm-12.886-5.927a6.692 6.692 0 0 0-3.314.871v-.773h-3.541V21.54h3.541v-4.514a6.69 6.69 0 0 0 3.314.87 6.75 6.75 0 0 0 2.651-.504 6.845 6.845 0 0 0 2.255-1.506 7.002 7.002 0 0 0 1.51-2.275 7.088 7.088 0 0 0 0-5.383 7.002 7.002 0 0 0-1.51-2.274 6.845 6.845 0 0 0-2.255-1.506 6.75 6.75 0 0 0-2.651-.504Zm0 10.362a3.299 3.299 0 0 1-2.249-.892 3.414 3.414 0 0 1-1.079-2.493c0-.099 0-.197.014-.29.055-.655.296-1.28.694-1.799a3.333 3.333 0 0 1 1.547-1.12 3.275 3.275 0 0 1 1.898-.077 3.32 3.32 0 0 1 1.63.992 3.442 3.442 0 0 1 .594 3.655 3.367 3.367 0 0 1-1.229 1.474c-.541.36-1.174.55-1.82.55ZM84.465 4.043v.871a6.76 6.76 0 0 0-6.795.103 6.92 6.92 0 0 0-2.468 2.548 7.073 7.073 0 0 0-.901 3.459c0 1.213.31 2.405.901 3.458a6.919 6.919 0 0 0 2.468 2.549 6.764 6.764 0 0 0 3.384.969 6.76 6.76 0 0 0 3.41-.867v.862h3.537V4.043h-3.536ZM81.147 14.41a3.286 3.286 0 0 1-1.825-.554 3.372 3.372 0 0 1-1.228-1.482 3.442 3.442 0 0 1-.228-1.925 3.41 3.41 0 0 1 .847-1.736 3.316 3.316 0 0 1 1.644-.98 3.272 3.272 0 0 1 1.902.1c.611.22 1.145.618 1.537 1.144.392.525.624 1.156.669 1.815 0 .077.008.152.008.231a3.41 3.41 0 0 1-1.056 2.474 3.296 3.296 0 0 1-2.27.913Zm46.756-10.367v13.958h-3.536v-.866a6.765 6.765 0 0 1-3.414.87 6.773 6.773 0 0 1-3.388-.967 6.93 6.93 0 0 1-2.471-2.55 7.083 7.083 0 0 1-.903-3.462V4.043h3.54v6.745c0 .076-.009.151-.009.232 0 .08 0 .154.009.23a3.41 3.41 0 0 0 1.043 2.251c.617.589 1.43.916 2.275.916s1.658-.327 2.275-.916a3.41 3.41 0 0 0 1.043-2.251 2.21 2.21 0 0 0 .009-.23c0-.081 0-.156-.009-.232V4.043h3.536Z" fill="#fff"/>
    <path d="M117.732 10.787v.462c0-.076-.009-.151-.009-.23 0-.08.005-.156.009-.232Zm51.134-6.739v3.594a3.3 3.3 0 0 0-2.139.975 3.416 3.416 0 0 0-.975 2.169c0 .075-.012.15-.012.231-.002.077.002.154.012.23v6.745h-3.533V4.043h3.539v.866a6.717 6.717 0 0 1 3.108-.861ZM71.996 9.77v8.241h-3.54V9.982c0-.066.011-.137.011-.212 0-.076-.008-.142-.012-.214a2.126 2.126 0 0 0-.691-1.376 2.054 2.054 0 0 0-1.427-.529 2.058 2.058 0 0 0-1.399.602 2.13 2.13 0 0 0-.622 1.596v8.162h-3.53V9.982a1.098 1.098 0 0 0 0-.133.551.551 0 0 0 0-.08.569.569 0 0 0 0-.08 1.14 1.14 0 0 0 0-.136A2.13 2.13 0 0 0 60.11 8.2a2.06 2.06 0 0 0-1.393-.545 2.06 2.06 0 0 0-1.393.545 2.13 2.13 0 0 0-.677 1.354c0 .072-.012.139-.012.214 0 .076.009.146.012.213v8.016h-3.545V9.77a5.782 5.782 0 0 1 .97-3.204 5.63 5.63 0 0 1 2.57-2.098 5.507 5.507 0 0 1 4.622.223 5.665 5.665 0 0 1 1.284.919c.124-.126.262-.235.398-.346a5.655 5.655 0 0 1 1.37-.796 5.507 5.507 0 0 1 4.14 0 5.63 5.63 0 0 1 2.57 2.097c.63.946.969 2.062.97 3.205Z" fill="#fff"/>
  </g>
  <defs>
    <clipPath id="clip0_3201_3571">
      <path fill="#fff" transform="translate(0 .5)" d="M0 0h181v21H0z"/>
    </clipPath>
  </defs>
</svg>
