<svg width="181" height="22" fill="none" xmlns="http://www.w3.org/2000/svg">
  <g clip-path="url('#clip0_2630_2303')">
    <path d="M2.186 19.172 0 16.95 14.824 1.864a4.566 4.566 0 0 1 1.483-1.01 4.502 4.502 0 0 1 3.5 0 4.566 4.566 0 0 1 1.482 1.009l2.184 2.223L8.65 19.173a4.531 4.531 0 0 1-3.232 1.362 4.531 4.531 0 0 1-3.232-1.363Zm16.844.001-2.185-2.222L31.668 1.864A4.566 4.566 0 0 1 33.151.855a4.502 4.502 0 0 1 3.499 0 4.567 4.567 0 0 1 1.483 1.009l2.184 2.223-14.823 15.086a4.531 4.531 0 0 1-3.232 1.363 4.531 4.531 0 0 1-3.233-1.363Zm16.548-2.183c0 2.511 2 4.548 4.469 4.548 2.468 0 4.469-2.037 4.469-4.549 0-2.512-2.001-4.548-4.47-4.548-2.467 0-4.468 2.036-4.468 4.548Z" fill="#F15A25"/>
    <path d="M111.901 17.998h-4.117l-4.985-6.328v-.009 6.337h-3.541v-13.9c0-.953.372-1.869 1.035-2.543a3.506 3.506 0 0 1 2.5-1.055v9.683l4.72-6.137h4.222l-5.51 6.891 5.676 7.06Zm68.2-6.478a3.814 3.814 0 0 0-1.675-1.28 16.88 16.88 0 0 0-1.977-.63 8.934 8.934 0 0 1-1.675-.582c-.459-.217-.686-.503-.686-.857a.925.925 0 0 1 .109-.456.897.897 0 0 1 .319-.339 1.884 1.884 0 0 1 1.078-.29c.97-.003 1.66.442 2.072 1.336l2.86-1.587a5.31 5.31 0 0 0-2.052-2.075 5.808 5.808 0 0 0-2.881-.724c-1.406 0-2.576.377-3.519 1.124-.942.747-1.418 1.773-1.418 3.08 0 .861.231 1.582.689 2.15.442.56 1.02.994 1.677 1.258a17.7 17.7 0 0 0 1.977.661 9.748 9.748 0 0 1 1.671.591c.464.223.69.512.69.863 0 .754-.598 1.132-1.789 1.132-1.318 0-2.167-.573-2.545-1.72l-2.909 1.667c.97 2.095 2.787 3.143 5.454 3.143 1.482 0 2.728-.37 3.723-1.097.996-.729 1.493-1.777 1.493-3.133 0-.89-.229-1.635-.686-2.236ZM96.963 4.048V7.64a3.31 3.31 0 0 0-2.134.979 3.422 3.422 0 0 0-.978 2.165c0 .076-.008.151-.008.232-.002.076.001.153.008.23v6.745h-3.535V4.042h3.536v.867a6.737 6.737 0 0 1 3.111-.861Zm62.865 5.823a7.016 7.016 0 0 0-2.181-4.043 6.797 6.797 0 0 0-4.182-1.776 6.77 6.77 0 0 0-4.357 1.267 6.978 6.978 0 0 0-2.629 3.756 7.091 7.091 0 0 0 .246 4.605 6.937 6.937 0 0 0 3.014 3.443 6.754 6.754 0 0 0 4.466.778 6.822 6.822 0 0 0 3.968-2.227l-2.623-2.404c-.382.44-.871.77-1.417.959a3.261 3.261 0 0 1-1.698.117 3.29 3.29 0 0 1-1.531-.754 3.37 3.37 0 0 1-.963-1.429h9.884a6.865 6.865 0 0 0 .091-1.146 7.102 7.102 0 0 0-.088-1.146Zm-9.884 0a3.367 3.367 0 0 1 1.214-1.624 3.278 3.278 0 0 1 3.823 0c.56.4.984.968 1.214 1.624h-6.251Zm-12.886-5.927a6.692 6.692 0 0 0-3.314.872v-.773h-3.541V21.54h3.541v-4.514a6.69 6.69 0 0 0 3.314.87 6.75 6.75 0 0 0 2.651-.504 6.845 6.845 0 0 0 2.255-1.505 7.002 7.002 0 0 0 1.51-2.275 7.088 7.088 0 0 0 0-5.383 7.002 7.002 0 0 0-1.51-2.275 6.845 6.845 0 0 0-2.255-1.506 6.75 6.75 0 0 0-2.651-.504Zm0 10.362a3.299 3.299 0 0 1-2.249-.892 3.414 3.414 0 0 1-1.079-2.493c0-.098 0-.196.014-.29.055-.655.296-1.28.694-1.798a3.333 3.333 0 0 1 1.547-1.12 3.275 3.275 0 0 1 1.898-.077 3.32 3.32 0 0 1 1.63.992 3.442 3.442 0 0 1 .594 3.655 3.367 3.367 0 0 1-1.229 1.473c-.541.36-1.174.55-1.82.55ZM84.465 4.042v.872a6.76 6.76 0 0 0-6.795.102 6.92 6.92 0 0 0-2.468 2.549 7.073 7.073 0 0 0-.901 3.458c0 1.213.31 2.405.901 3.459a6.92 6.92 0 0 0 2.468 2.549 6.765 6.765 0 0 0 3.384.968 6.76 6.76 0 0 0 3.41-.866v.861h3.537V4.042h-3.536ZM81.147 14.41a3.285 3.285 0 0 1-1.825-.554 3.372 3.372 0 0 1-1.228-1.482 3.442 3.442 0 0 1-.228-1.924 3.41 3.41 0 0 1 .847-1.737 3.316 3.316 0 0 1 1.644-.98 3.272 3.272 0 0 1 1.902.1c.611.22 1.145.618 1.537 1.144a3.43 3.43 0 0 1 .669 1.815c0 .077.008.153.008.232a3.411 3.411 0 0 1-1.056 2.474 3.296 3.296 0 0 1-2.27.912Zm46.756-10.368v13.959h-3.536v-.867a6.766 6.766 0 0 1-3.414.87 6.773 6.773 0 0 1-3.388-.967 6.93 6.93 0 0 1-2.471-2.55 7.083 7.083 0 0 1-.903-3.462V4.042h3.54v6.746c0 .075-.009.15-.009.231 0 .08 0 .155.009.23a3.41 3.41 0 0 0 1.043 2.252c.617.588 1.43.916 2.275.916s1.658-.328 2.275-.916a3.41 3.41 0 0 0 1.043-2.252 2.2 2.2 0 0 0 .009-.23c0-.08 0-.156-.009-.231V4.042h3.536Z" fill="#283642"/>
    <path d="M117.732 10.788v.461c0-.075-.009-.15-.009-.23 0-.08.005-.156.009-.231Zm51.134-6.74V7.64a3.3 3.3 0 0 0-2.139.976 3.416 3.416 0 0 0-.975 2.168c0 .076-.012.151-.012.232-.002.076.002.153.012.23v6.745h-3.533V4.042h3.539v.867a6.717 6.717 0 0 1 3.108-.861ZM71.996 9.77v8.242h-3.54v-8.03c0-.066.011-.136.011-.212 0-.075-.008-.142-.012-.214a2.126 2.126 0 0 0-.691-1.376 2.054 2.054 0 0 0-1.427-.528 2.058 2.058 0 0 0-1.399.601 2.13 2.13 0 0 0-.622 1.596v8.163h-3.53v-8.03a1.098 1.098 0 0 0 0-.133.551.551 0 0 0 0-.079.569.569 0 0 0 0-.08 1.14 1.14 0 0 0 0-.136A2.13 2.13 0 0 0 60.11 8.2a2.06 2.06 0 0 0-1.393-.545 2.06 2.06 0 0 0-1.393.545 2.13 2.13 0 0 0-.677 1.354c0 .072-.012.138-.012.214 0 .075.009.145.012.212v8.017h-3.545V9.77a5.782 5.782 0 0 1 .97-3.204 5.63 5.63 0 0 1 2.57-2.097 5.507 5.507 0 0 1 4.622.222 5.666 5.666 0 0 1 1.284.92c.124-.126.262-.236.398-.346a5.655 5.655 0 0 1 1.37-.796 5.507 5.507 0 0 1 4.14 0 5.63 5.63 0 0 1 2.57 2.097c.63.945.969 2.061.97 3.204Z" fill="#283642"/>
  </g>
  <defs>
    <clipPath id="clip0_2630_2303">
      <path fill="#fff" transform="translate(0 .5)" d="M0 0h181v21H0z"/>
    </clipPath>
  </defs>
</svg>
